<svg width="48" height="48" viewBox="0 0 48 48" fill="none" xmlns="http://www.w3.org/2000/svg">
<path d="M24 16C24 16 24 16 25.52 14C27.28 11.68 29.88 10 33 10C37.98 10 42 14.02 42 19C42 20.86 41.44 22.58 40.48 24C38.86 26.42 24 42 24 42C24 42 9.14 26.42 7.52 24C6.56 22.58 6 20.86 6 19C6 14.02 10.02 10 15 10C18.12 10 20.74 11.68 22.48 14C24 16 24 16 24 16Z" fill="#0339A6"/>
<mask id="path-2-outside-1_771_2381" maskUnits="userSpaceOnUse" x="3" y="7" width="42" height="38" fill="black">
<rect fill="white" x="3" y="7" width="42" height="38"/>
<path d="M24 16C24 16 24 16 22.48 14C20.72 11.68 18.12 10 15 10C10.02 10 6 14.02 6 19C6 20.86 6.56 22.58 7.52 24C9.14 26.42 24 42 24 42M24 16C24 16 24 16 25.52 14C27.28 11.68 29.88 10 33 10C37.98 10 42 14.02 42 19C42 20.86 41.44 22.58 40.48 24C38.86 26.42 24 42 24 42"/>
</mask>
<path d="M22.48 14L20.0899 15.8132L20.0915 15.8152L22.48 14ZM7.52 24L10.013 22.3311L10.0053 22.3198L7.52 24ZM24 42L21.8291 44.0706C22.3952 44.6641 23.1797 45 24 45C24.8203 45 25.6048 44.6641 26.1709 44.0706L24 42ZM25.52 14L27.9085 15.8153L27.9101 15.8132L25.52 14ZM40.48 24L37.9946 22.3198L37.987 22.3311L40.48 24ZM24 16C24 13 25.3329 13.3124 26.3882 14.1844C26.3882 14.1844 26.3883 14.1845 26.3883 14.1846C26.3884 14.1846 26.3884 14.1847 26.3884 14.1847C26.3884 14.1847 26.3884 14.1847 26.3884 14.1847C26.3884 14.1847 26.3884 14.1847 26.3884 14.1847C26.3884 14.1847 26.3884 14.1847 26.3884 14.1847C26.3884 14.1846 26.3883 14.1845 26.3881 14.1843C26.3877 14.1838 26.387 14.1828 26.3855 14.1808C26.3825 14.1769 26.3766 14.1691 26.3647 14.1535C26.341 14.1222 26.2935 14.0597 26.1985 13.9347C26.0085 13.6847 25.6285 13.1848 24.8685 12.1848L22.48 14L20.0915 15.8152C20.8515 16.8152 21.2315 17.3152 21.4215 17.5653C21.5165 17.6903 21.564 17.7528 21.5878 17.784C21.5996 17.7996 21.6056 17.8074 21.6085 17.8113C21.61 17.8133 21.6108 17.8143 21.6112 17.8148C21.6113 17.815 21.6114 17.8151 21.6115 17.8152C21.6115 17.8152 21.6115 17.8153 21.6115 17.8153C21.6115 17.8153 21.6116 17.8153 21.6116 17.8153C21.6116 17.8153 21.6116 17.8154 21.6117 17.8154C21.6117 17.8155 21.6118 17.8156 21.6118 17.8156C22.6671 18.6876 24 19 24 16ZM22.48 14L24.8701 12.1868C22.6912 9.31474 19.2794 7 15 7V10V13C16.9606 13 18.7488 14.0453 20.0899 15.8132L22.48 14ZM15 10V7C8.36315 7 3 12.3631 3 19H6H9C9 15.6769 11.6769 13 15 13V10ZM6 19H3C3 21.4711 3.74616 23.7743 5.03467 25.6802L7.52 24L10.0053 22.3198C9.37384 21.3857 9 20.2489 9 19H6ZM7.52 24L5.02702 25.6689C5.58057 26.4957 6.99162 28.1105 8.54861 29.8404C10.1875 31.6612 12.2111 33.8509 14.1743 35.9544C16.1394 38.06 18.0527 40.0886 19.4741 41.5902C20.185 42.3412 20.7733 42.9608 21.184 43.3928C21.3894 43.6089 21.5504 43.778 21.6602 43.8933C21.7151 43.951 21.7572 43.9952 21.7857 44.025C21.7999 44.0399 21.8107 44.0512 21.818 44.0589C21.8216 44.0627 21.8244 44.0656 21.8262 44.0675C21.8271 44.0685 21.8279 44.0692 21.8283 44.0698C21.8286 44.07 21.8288 44.0702 21.8289 44.0703C21.829 44.0705 21.8291 44.0706 24 42C26.1709 39.9294 26.1709 39.9294 26.1708 39.9293C26.1707 39.9292 26.1705 39.929 26.1703 39.9288C26.1699 39.9284 26.1692 39.9277 26.1684 39.9268C26.1666 39.925 26.164 39.9222 26.1605 39.9185C26.1535 39.9112 26.1429 39.9001 26.129 39.8855C26.1011 39.8562 26.0595 39.8126 26.0052 39.7555C25.8965 39.6414 25.7367 39.4735 25.5326 39.2588C25.1244 38.8294 24.539 38.2129 23.8315 37.4654C22.416 35.9701 20.5131 33.9525 18.5607 31.8606C16.6064 29.7666 14.6113 27.6075 13.0083 25.8265C11.3234 23.9545 10.2694 22.7143 10.013 22.3311L7.52 24ZM24 16C24 19 25.3329 18.6876 26.3882 17.8156C26.3882 17.8156 26.3883 17.8155 26.3883 17.8154C26.3884 17.8154 26.3884 17.8153 26.3884 17.8153C26.3884 17.8153 26.3885 17.8153 26.3885 17.8153C26.3885 17.8153 26.3885 17.8152 26.3885 17.8152C26.3886 17.8151 26.3887 17.815 26.3888 17.8148C26.3892 17.8143 26.39 17.8133 26.3915 17.8113C26.3944 17.8074 26.4004 17.7996 26.4122 17.784C26.436 17.7528 26.4835 17.6903 26.5785 17.5653C26.7685 17.3152 27.1485 16.8152 27.9085 15.8152L25.52 14L23.1315 12.1848C22.3715 13.1848 21.9915 13.6847 21.8015 13.9347C21.7065 14.0597 21.659 14.1222 21.6353 14.1535C21.6234 14.1691 21.6175 14.1769 21.6145 14.1808C21.613 14.1828 21.6123 14.1838 21.6119 14.1843C21.6117 14.1845 21.6116 14.1846 21.6116 14.1847C21.6116 14.1847 21.6116 14.1847 21.6116 14.1847C21.6116 14.1847 21.6116 14.1847 21.6116 14.1847C21.6116 14.1847 21.6116 14.1847 21.6116 14.1847C21.6116 14.1847 21.6116 14.1846 21.6117 14.1846C21.6117 14.1845 21.6118 14.1844 21.6118 14.1844C22.6671 13.3124 24 13 24 16ZM25.52 14L27.9101 15.8132C29.2512 14.0453 31.0394 13 33 13V10V7C28.7206 7 25.3088 9.31474 23.1299 12.1868L25.52 14ZM33 10V13C36.3231 13 39 15.6769 39 19H42H45C45 12.3631 39.6369 7 33 7V10ZM42 19H39C39 20.2489 38.6262 21.3857 37.9947 22.3198L40.48 24L42.9653 25.6802C44.2538 23.7743 45 21.4711 45 19H42ZM40.48 24L37.987 22.3311C37.7306 22.7143 36.6766 23.9545 34.9917 25.8265C33.3887 27.6075 31.3936 29.7666 29.4393 31.8606C27.4869 33.9525 25.584 35.9701 24.1685 37.4654C23.461 38.2129 22.8756 38.8294 22.4674 39.2588C22.2633 39.4735 22.1035 39.6414 21.9948 39.7555C21.9405 39.8126 21.8989 39.8562 21.871 39.8855C21.8571 39.9001 21.8465 39.9112 21.8395 39.9185C21.836 39.9222 21.8334 39.925 21.8316 39.9268C21.8308 39.9277 21.8301 39.9284 21.8297 39.9288C21.8295 39.929 21.8293 39.9292 21.8292 39.9293C21.8291 39.9294 21.8291 39.9294 24 42C26.1709 44.0706 26.171 44.0705 26.1711 44.0703C26.1712 44.0702 26.1714 44.07 26.1717 44.0698C26.1721 44.0692 26.1729 44.0685 26.1738 44.0675C26.1756 44.0656 26.1784 44.0627 26.182 44.0589C26.1893 44.0512 26.2001 44.0399 26.2143 44.025C26.2428 43.9952 26.2849 43.951 26.3398 43.8933C26.4496 43.778 26.6106 43.6089 26.816 43.3928C27.2267 42.9608 27.815 42.3412 28.5259 41.5902C29.9473 40.0886 31.8606 38.06 33.8257 35.9544C35.7889 33.8509 37.8125 31.6612 39.4514 29.8404C41.0084 28.1105 42.4194 26.4957 42.973 25.6689L40.48 24Z" fill="#03178C" mask="url(#path-2-outside-1_771_2381)"/>
</svg>
