<svg width="72" height="72" viewBox="0 0 72 72" fill="none" xmlns="http://www.w3.org/2000/svg">
<path d="M35.9999 40.1999L21.2999 54.8999C20.7499 55.4499 20.0499 55.7249 19.1999 55.7249C18.3499 55.7249 17.6499 55.4499 17.0999 54.8999C16.5499 54.3499 16.2749 53.6499 16.2749 52.7999C16.2749 51.9499 16.5499 51.2499 17.0999 50.6999L31.7999 35.9999L17.0999 21.2999C16.5499 20.7499 16.2749 20.0499 16.2749 19.1999C16.2749 18.3499 16.5499 17.6499 17.0999 17.0999C17.6499 16.5499 18.3499 16.2749 19.1999 16.2749C20.0499 16.2749 20.7499 16.5499 21.2999 17.0999L35.9999 31.7999L50.6999 17.0999C51.2499 16.5499 51.9499 16.2749 52.7999 16.2749C53.6499 16.2749 54.3499 16.5499 54.8999 17.0999C55.4499 17.6499 55.7249 18.3499 55.7249 19.1999C55.7249 20.0499 55.4499 20.7499 54.8999 21.2999L40.1999 35.9999L54.8999 50.6999C55.4499 51.2499 55.7249 51.9499 55.7249 52.7999C55.7249 53.6499 55.4499 54.3499 54.8999 54.8999C54.3499 55.4499 53.6499 55.7249 52.7999 55.7249C51.9499 55.7249 51.2499 55.4499 50.6999 54.8999L35.9999 40.1999Z" fill="#03178C"/>
</svg>
