<svg width="29" height="28" viewBox="0 0 29 28" fill="none" xmlns="http://www.w3.org/2000/svg">
<path d="M14.5737 0.806641C6.64012 0.806641 0.242065 5.92503 0.242065 12.1388C0.242065 16.1721 2.90365 19.7039 6.89604 21.7205L5.54477 26.7674C5.51929 26.843 5.51537 26.9242 5.53345 27.0019C5.55153 27.0797 5.5909 27.1508 5.64714 27.2075C5.72915 27.2798 5.83466 27.3198 5.94401 27.3201C6.03467 27.3128 6.12069 27.277 6.18969 27.2177L12.0042 23.297C12.8625 23.4155 13.7277 23.477 14.5942 23.4812C22.5175 23.4812 28.9258 18.3628 28.9258 12.1388C28.9258 5.91479 22.497 0.806641 14.5737 0.806641Z" fill="#392020"/>
<path d="M5.25772 10.3478H3.69148C3.49735 10.3535 3.30563 10.3037 3.13869 10.2045C3.06457 10.1581 3.00085 10.0968 2.95153 10.0245C2.9022 9.95232 2.86834 9.87068 2.85206 9.78475C2.84708 9.73026 2.84708 9.67553 2.85206 9.62105C2.84719 9.5191 2.86698 9.41743 2.90975 9.32476C2.95252 9.23209 3.01701 9.15115 3.09774 9.08871C3.27621 8.95946 3.49162 8.89118 3.71195 8.89414H8.43116C8.62683 8.88727 8.81986 8.94091 8.98395 9.04772C9.05981 9.0921 9.12488 9.15283 9.17444 9.22542C9.22401 9.298 9.25685 9.38065 9.27058 9.46747C9.27558 9.51853 9.27558 9.56998 9.27058 9.62105C9.27541 9.72446 9.25566 9.82752 9.21296 9.92183C9.17025 10.0161 9.1058 10.0989 9.0249 10.1635C8.85077 10.2926 8.63745 10.3577 8.42092 10.3478H6.90586V15.7324C6.91202 15.8472 6.89426 15.9618 6.85373 16.0693C6.8132 16.1768 6.75077 16.2748 6.67041 16.3569C6.59335 16.4354 6.50072 16.4969 6.39846 16.5374C6.29621 16.578 6.18659 16.5967 6.07667 16.5923C5.88442 16.5978 5.69624 16.5363 5.54436 16.4184C5.39975 16.3031 5.30161 16.1394 5.26796 15.9576C5.25785 15.8829 5.25785 15.8072 5.26796 15.7324L5.25772 10.3478Z" fill="#FEE500"/>
<path d="M9.7224 9.29305C9.76743 9.12459 9.87317 8.97872 10.0193 8.88355C10.175 8.79531 10.3523 8.75274 10.5311 8.76071H10.9201C11.1098 8.75391 11.2977 8.79999 11.4627 8.8938C11.6375 9.01138 11.7618 9.19043 11.8107 9.39539L13.8581 15.1793C13.9112 15.3302 13.9556 15.484 13.9912 15.64C13.9947 15.7048 13.9947 15.7696 13.9912 15.8344C13.9946 15.9342 13.9763 16.0335 13.9374 16.1255C13.8985 16.2174 13.84 16.2998 13.766 16.3668C13.6942 16.4403 13.6081 16.4982 13.513 16.537C13.4179 16.5757 13.3158 16.5944 13.2132 16.5919C13.0553 16.6076 12.8967 16.5698 12.763 16.4844C12.6293 16.3989 12.5282 16.271 12.4761 16.1211L12.0462 14.862H9.35387L8.92393 16.1211C8.87308 16.2739 8.7708 16.4044 8.63453 16.4902C8.49826 16.5761 8.33644 16.612 8.17663 16.5919C8.00353 16.5965 7.83397 16.5423 7.6955 16.4384C7.56059 16.3311 7.46956 16.1782 7.43957 16.0085C7.43414 15.9506 7.43414 15.8923 7.43957 15.8344C7.422 15.7328 7.422 15.629 7.43957 15.5274C7.43957 15.4148 7.51123 15.2919 7.55218 15.1793L9.7224 9.29305ZM10.7461 10.6341L9.77358 13.7052H11.7084L10.7461 10.6341Z" fill="#FEE500"/>
<path d="M14.2256 9.62061C14.2152 9.39087 14.2962 9.16638 14.4508 8.99617C14.5294 8.91688 14.6238 8.85491 14.7279 8.81435C14.8319 8.7738 14.9433 8.75545 15.0548 8.76062C15.2466 8.75838 15.4337 8.8196 15.5871 8.93469C15.7293 9.05477 15.8237 9.2218 15.8533 9.40555C15.8634 9.47685 15.8634 9.5493 15.8533 9.62061V15.0052H18.6684C18.8636 15.0027 19.0554 15.0558 19.2212 15.1587C19.2958 15.2046 19.3598 15.2658 19.4092 15.3381C19.4585 15.4104 19.4922 15.4923 19.5078 15.5784C19.5078 15.5784 19.5078 15.6808 19.5078 15.732C19.5127 15.8339 19.4929 15.9355 19.4502 16.0282C19.4074 16.1208 19.3429 16.2019 19.2622 16.2643C19.0837 16.3936 18.8683 16.4617 18.648 16.4588H15.1879C14.9675 16.473 14.7485 16.4156 14.5634 16.2951C14.3979 16.1713 14.2876 15.9875 14.2563 15.7832C14.2488 15.6707 14.2488 15.5578 14.2563 15.4453L14.2256 9.62061Z" fill="#FEE500"/>
<path d="M19.6922 9.62086C19.6861 9.39179 19.7665 9.16884 19.9174 8.99642C20.0709 8.85701 20.2677 8.77468 20.4747 8.76349C20.6817 8.7523 20.8862 8.81287 21.0537 8.93494C21.199 9.05396 21.297 9.22091 21.3301 9.4058C21.3352 9.47736 21.3352 9.54929 21.3301 9.62086V12.1288L23.9201 9.13963C24.0199 9.03765 24.1258 8.94202 24.2374 8.85309C24.3426 8.79048 24.4631 8.75847 24.5855 8.76087C24.7644 8.75989 24.9394 8.81348 25.0871 8.91445C25.1567 8.96131 25.2161 9.02179 25.2618 9.09214C25.3076 9.1625 25.3387 9.24131 25.3532 9.32395C25.3574 9.34421 25.3574 9.36516 25.3532 9.38543C25.3483 9.40905 25.3483 9.4334 25.3532 9.45703C25.3529 9.56475 25.3247 9.6706 25.2713 9.76419C25.217 9.86328 25.1518 9.95589 25.0768 10.0405L23.3775 11.9037L25.4249 15.0771V15.1794C25.5312 15.3261 25.6141 15.4885 25.6706 15.6606V15.7117C25.6824 15.8304 25.6653 15.9501 25.6207 16.0606C25.5762 16.1712 25.5054 16.2692 25.4146 16.3464C25.2439 16.4755 25.035 16.544 24.8209 16.541C24.6787 16.5469 24.5374 16.515 24.4114 16.4488C24.2751 16.3573 24.1627 16.2345 24.0839 16.0905L22.1798 13.0194L21.2687 13.9715V15.681C21.2748 15.9101 21.1944 16.133 21.0435 16.3054C20.9626 16.3845 20.8664 16.4463 20.7607 16.4868C20.6551 16.5273 20.5423 16.5457 20.4293 16.541C20.2404 16.5449 20.056 16.4834 19.9072 16.3669C19.7626 16.2517 19.6645 16.0881 19.6308 15.9063C19.6207 15.8316 19.6207 15.7557 19.6308 15.681L19.6922 9.62086Z" fill="#FEE500"/>
</svg>
