<svg width="42" height="42" viewBox="0 0 42 42" fill="none" xmlns="http://www.w3.org/2000/svg">
<path d="M34.125 17.0625C34.125 20.8277 32.9027 24.3059 30.8438 27.1277L41.2289 37.5211C42.2543 38.5465 42.2543 40.2117 41.2289 41.2371C40.2035 42.2625 38.5383 42.2625 37.5129 41.2371L27.1277 30.8438C24.3059 32.9109 20.8277 34.125 17.0625 34.125C7.63711 34.125 0 26.4879 0 17.0625C0 7.63711 7.63711 0 17.0625 0C26.4879 0 34.125 7.63711 34.125 17.0625ZM17.0625 28.875C18.6137 28.875 20.1498 28.5695 21.5829 27.9758C23.0161 27.3822 24.3183 26.5121 25.4152 25.4152C26.5121 24.3183 27.3822 23.0161 27.9758 21.5829C28.5695 20.1498 28.875 18.6137 28.875 17.0625C28.875 15.5113 28.5695 13.9752 27.9758 12.5421C27.3822 11.1089 26.5121 9.80669 25.4152 8.7098C24.3183 7.61291 23.0161 6.74281 21.5829 6.14917C20.1498 5.55554 18.6137 5.25 17.0625 5.25C15.5113 5.25 13.9752 5.55554 12.5421 6.14917C11.1089 6.74281 9.80669 7.61291 8.7098 8.7098C7.61291 9.80669 6.74281 11.1089 6.14917 12.5421C5.55554 13.9752 5.25 15.5113 5.25 17.0625C5.25 18.6137 5.55554 20.1498 6.14917 21.5829C6.74281 23.0161 7.61291 24.3183 8.7098 25.4152C9.80669 26.5121 11.1089 27.3822 12.5421 27.9758C13.9752 28.5695 15.5113 28.875 17.0625 28.875Z" fill="#084DA6"/>
</svg>
