<svg width="180" height="133" viewBox="0 0 180 133" fill="none" xmlns="http://www.w3.org/2000/svg">
<path d="M20.7771 132.5C14.8543 132.5 9.91285 131.013 5.95285 128.039C1.99285 125.065 0.00857143 121.351 0 116.897V98.3293C0 96.9582 0.612859 95.8124 1.83857 94.8919C3.06429 93.9714 4.59429 93.508 6.42857 93.5015C8.26286 93.4951 9.79285 93.9586 11.0186 94.8919C12.2443 95.8253 12.8571 96.9711 12.8571 98.3293V116.897C12.8571 118.384 13.68 119.748 15.3257 120.991C16.9714 122.233 18.7843 122.851 20.7643 122.845H159.236C161.207 122.845 163.02 122.227 164.674 120.991C166.329 119.755 167.151 118.39 167.143 116.897V98.3293C167.143 96.9582 167.756 95.8124 168.981 94.8919C170.207 93.9714 171.737 93.508 173.571 93.5015C175.406 93.4951 176.936 93.9586 178.161 94.8919C179.387 95.8253 180 96.9711 180 98.3293V116.897C180 121.345 178.02 125.056 174.06 128.03C170.1 131.003 165.154 132.494 159.223 132.5H20.7771ZM83.5714 15.9295L58.23 34.9604C56.9786 35.9002 55.4914 36.3926 53.7686 36.4377C52.0457 36.4827 50.4771 35.971 49.0629 34.9025C47.6914 33.8404 46.9929 32.7042 46.9671 31.4941C46.9414 30.2775 47.64 29.1381 49.0629 28.076L82.7229 2.77869C83.8543 1.94188 85.0029 1.3529 86.1686 1.01174C87.3428 0.67058 88.62 0.5 90 0.5C91.38 0.5 92.6571 0.67058 93.8314 1.01174C95.0057 1.3529 96.1543 1.9451 97.2771 2.78835L130.937 28.076C132.197 29.0158 132.857 30.123 132.917 31.3975C132.969 32.672 132.313 33.8404 130.95 34.9025C129.527 35.971 127.997 36.5149 126.36 36.5342C124.723 36.5535 123.193 36.0289 121.77 34.9604L96.4286 15.9295V94.6216C96.4286 95.9991 95.8157 97.1481 94.59 98.0686C93.3643 98.9891 91.8343 99.4493 90 99.4493C88.1657 99.4493 86.6357 98.9891 85.41 98.0686C84.1843 97.1481 83.5714 95.9991 83.5714 94.6216V15.9295Z" fill="#0339A6"/>
</svg>
